<?xml version="1.0" encoding="UTF-8"?>
<svg width="17px" height="15px" viewBox="0 0 17 15" version="1.1" xmlns="http://www.w3.org/2000/svg" xmlns:xlink="http://www.w3.org/1999/xlink">
    <!-- Generator: Sketch 46.2 (44496) - http://www.bohemiancoding.com/sketch -->
    <title>Page 1</title>
    <desc>Created with Sketch.</desc>
    <defs></defs>
    <g id="SketchAppSources.com" stroke="none" stroke-width="1" fill="none" fill-rule="evenodd">
        <g id="Dark-Dashboard" transform="translate(-244.000000, -686.000000)" fill="#7A95C3">
            <g id="UI" transform="translate(186.000000, 230.000000)">
                <g id="nav-bar" transform="translate(54.000000, 19.000000)">
                    <path d="M5.594,442.894 L19.406,442.894 L19.406,450.394 L5.594,450.394 L5.594,442.894 Z M9.715,438.606 L11.309,440.215 L19.406,440.215 L19.406,441.285 L5.594,441.285 L5.594,438.606 L9.715,438.606 Z M11.97,438.606 L10.376,437 L5.064,437 C4.476,437 4,437.479 4,438.073 L4,450.927 C4,451.521 4.476,452 5.064,452 L19.936,452 C20.524,452 21,451.521 21,450.927 L21,439.679 C21,439.088 20.524,438.606 19.936,438.606 L11.97,438.606 Z" id="Page-1"></path>
                </g>
            </g>
        </g>
    </g>
</svg>