<?xml version="1.0" encoding="UTF-8"?>
<svg width="16px" height="16px" viewBox="0 0 16 16" version="1.1" xmlns="http://www.w3.org/2000/svg" xmlns:xlink="http://www.w3.org/1999/xlink">
    <!-- Generator: Sketch 46.2 (44496) - http://www.bohemiancoding.com/sketch -->
    <title>Page 1</title>
    <desc>Created with Sketch.</desc>
    <defs></defs>
    <g id="SketchAppSources.com" stroke="none" stroke-width="1" fill="none" fill-rule="evenodd">
        <g id="Dark-Dashboard" transform="translate(-245.000000, -471.000000)" fill="#7A95C3">
            <g id="UI" transform="translate(186.000000, 230.000000)">
                <g id="nav-bar" transform="translate(54.000000, 19.000000)">
                    <path d="M19.5,232.5 L10.5,232.5 L10.5,223.5 L19.5,223.5 L19.5,232.5 Z M15.5,236.5 L6.5,236.5 L6.5,227.5 L9,227.5 L9,233 C9,233.552 9.448,234 10,234 L15.5,234 L15.5,236.5 Z M20,222 L10,222 C9.448,222 9,222.449 9,223 L9,226 L6,226 C5.448,226 5,226.449 5,227 L5,237 C5,237.552 5.448,238 6,238 L16,238 C16.552,238 17,237.552 17,237 L17,234 L20,234 C20.552,234 21,233.552 21,233 L21,223 C21,222.449 20.552,222 20,222 L20,222 Z" id="Page-1"></path>
                </g>
            </g>
        </g>
    </g>
</svg>