<?xml version="1.0" encoding="UTF-8"?>
<svg width="25px" height="18px" viewBox="0 0 25 18" version="1.1" xmlns="http://www.w3.org/2000/svg" xmlns:xlink="http://www.w3.org/1999/xlink">
    <!-- Generator: Sketch 46.2 (44496) - http://www.bohemiancoding.com/sketch -->
    <title>Page 1</title>
    <desc>Created with Sketch.</desc>
    <defs>
        <polyline id="path-1" points="0 0.142831169 24.8925926 0.142831169 24.8925926 18 0 18"></polyline>
    </defs>
    <g id="SketchAppSources.com" stroke="none" stroke-width="1" fill="none" fill-rule="evenodd">
        <g id="Dark-Dashboard" transform="translate(-240.000000, -542.000000)">
            <g id="UI" transform="translate(186.000000, 230.000000)">
                <g id="nav-bar" transform="translate(54.000000, 19.000000)">
                    <g id="Page-1" transform="translate(0.000000, 293.000000)">
                        <mask id="mask-2" fill="white">
                            <use xlink:href="#path-1"></use>
                        </mask>
                        <g id="Clip-2"></g>
                        <path d="M23.0659028,2.49054545 C22.7913657,2.49054545 22.5677546,2.26472727 22.5677546,1.98748052 C22.5677546,1.71046753 22.7913657,1.48441558 23.0659028,1.48441558 C23.3402083,1.48441558 23.5640509,1.71046753 23.5640509,1.98748052 C23.5640509,2.26472727 23.3402083,2.49054545 23.0659028,2.49054545 M13.7608102,5.74948052 C13.4865046,5.74948052 13.262662,5.52366234 13.262662,5.24641558 C13.262662,4.9694026 13.4865046,4.74335065 13.7608102,4.74335065 C14.0351157,4.74335065 14.2589583,4.9694026 14.2589583,5.24641558 C14.2589583,5.52366234 14.0351157,5.74948052 13.7608102,5.74948052 M11.1038657,13.8076364 C10.8295602,13.8076364 10.6057176,13.5815844 10.6057176,13.3045714 C10.6057176,13.0273247 10.8295602,12.8012727 11.1038657,12.8012727 C11.3781713,12.8012727 11.6020139,13.0273247 11.6020139,13.3045714 C11.6020139,13.5815844 11.3781713,13.8076364 11.1038657,13.8076364 M1.82655093,16.6584156 C1.55224537,16.6584156 1.32840278,16.4323636 1.32840278,16.1553506 C1.32840278,15.8781039 1.55224537,15.6522857 1.82655093,15.6522857 C2.10108796,15.6522857 2.32493056,15.8781039 2.32493056,16.1553506 C2.32493056,16.4323636 2.10108796,16.6584156 1.82655093,16.6584156 M23.0659028,0.142831169 C22.0584954,0.142831169 21.2392824,0.97012987 21.2392824,1.98748052 C21.2392824,2.00641558 21.244375,2.02418182 21.2450694,2.04381818 L15.094375,3.9945974 C14.7603472,3.63225974 14.288125,3.40176623 13.7608102,3.40176623 C12.7534028,3.40176623 11.9341898,4.22906494 11.9341898,5.24641558 C11.9341898,5.78290909 12.1656713,6.2618961 12.5284028,6.59922078 L10.9520139,11.4755844 C10.0730787,11.5501558 9.37655093,12.2484156 9.29414352,13.1334545 L3.19599537,14.9474805 C2.86127315,14.5601299 2.37469907,14.3107013 1.82655093,14.3107013 C0.819375,14.3107013 -6.94444444e-05,15.138 -6.94444444e-05,16.1553506 C-6.94444444e-05,17.1727013 0.819375,18 1.82655093,18 C2.81520833,18 3.61752315,17.2021558 3.64738426,16.210987 L9.6605787,14.4226753 C9.99530093,14.8607532 10.5140509,15.1492208 11.1038657,15.1492208 C12.1112731,15.1492208 12.9304861,14.3216883 12.9304861,13.3045714 C12.9304861,12.7154805 12.6508565,12.1967532 12.2246991,11.8587273 L13.7665972,7.0905974 C14.7707639,7.08709091 15.5874306,6.2618961 15.5874306,5.24641558 L15.5874306,5.24454545 L21.7684491,3.28371429 C22.0999306,3.62197403 22.5587269,3.83212987 23.0659028,3.83212987 C24.0733102,3.83212987 24.8925231,3.00483117 24.8925231,1.98748052 C24.8925231,0.97012987 24.0733102,0.142831169 23.0659028,0.142831169" id="Fill-1" fill="#7A95C3" mask="url(#mask-2)"></path>
                    </g>
                </g>
            </g>
        </g>
    </g>
</svg>